<?xml version="1.0" encoding="UTF-8" standalone="no"?>
<!-- Created with Inkscape (http://www.inkscape.org/) -->

<svg
   xmlns:dc="http://purl.org/dc/elements/1.1/"
   xmlns:cc="http://creativecommons.org/ns#"
   xmlns:rdf="http://www.w3.org/1999/02/22-rdf-syntax-ns#"
   xmlns:svg="http://www.w3.org/2000/svg"
   xmlns="http://www.w3.org/2000/svg"
   xmlns:sodipodi="http://sodipodi.sourceforge.net/DTD/sodipodi-0.dtd"
   xmlns:inkscape="http://www.inkscape.org/namespaces/inkscape"
   id="svg4155"
   version="1.1"
   inkscape:version="0.91 r13725"
   width="308"
   height="148"
   viewBox="0 0 308 148"
   sodipodi:docname="kidmooc.svg">
  <metadata
     id="metadata4161">
    <rdf:RDF>
      <cc:Work
         rdf:about="">
        <dc:format>image/svg+xml</dc:format>
        <dc:type
           rdf:resource="http://purl.org/dc/dcmitype/StillImage" />
        <dc:title></dc:title>
      </cc:Work>
    </rdf:RDF>
  </metadata>
  <defs
     id="defs4159" />
  <sodipodi:namedview
     pagecolor="#ffffff"
     bordercolor="#666666"
     borderopacity="1"
     objecttolerance="10"
     gridtolerance="10"
     guidetolerance="10"
     inkscape:pageopacity="0"
     inkscape:pageshadow="2"
     inkscape:window-width="1920"
     inkscape:window-height="1016"
     id="namedview4157"
     showgrid="false"
     showguides="true"
     inkscape:guide-bbox="true"
     inkscape:zoom="2.8284271"
     inkscape:cx="118.20726"
     inkscape:cy="114.78069"
     inkscape:window-x="0"
     inkscape:window-y="27"
     inkscape:window-maximized="1"
     inkscape:current-layer="svg4155">
    <sodipodi:guide
       position="175.02975,321.48539"
       orientation="1,0"
       id="guide4250" />
    <sodipodi:guide
       position="136.64839,110.66221"
       orientation="1,0"
       id="guide4287" />
  </sodipodi:namedview>
  <path
     style="opacity:1;fill:#f4f4f4;fill-opacity:1;stroke:none;stroke-linecap:round;stroke-linejoin:round;stroke-opacity:1"
     d="M 136.48242 47.298828 A 42.010426 42.010426 0 0 0 94.470703 89.310547 A 42.010426 42.010426 0 0 0 108.4082 120.5 L 164.55273 120.5 A 42.010426 42.010426 0 0 0 178.49219 89.310547 A 42.010426 42.010426 0 0 0 136.48242 47.298828 z "
     id="path4429" />
  <path
     style="fill:#303030;fill-opacity:1;fill-rule:evenodd;stroke:none;stroke-width:1px;stroke-linecap:butt;stroke-linejoin:miter;stroke-opacity:1"
     d="m 170.92314,66.388141 c -3.84114,0.309168 -20.9345,0.07825 -34.21865,21.796047 l -0.0424,0 C 123.37826,66.469779 106.28864,66.700122 102.4477,66.390968 c 36.51559,10.58041 31.08309,42.892912 26.94388,51.347032 -3.34582,0.35142 -6.69982,0.76955 -10.2533,2.78224 l 17.5662,0 0,-0.003 17.52666,0 c -3.55349,-2.01269 -6.90748,-2.43082 -10.2533,-2.78224 -4.13921,-8.45412 -9.5703,-40.766627 26.94529,-51.347036 z"
     id="path4195"
     inkscape:connector-curvature="0" />
  <path
     style="fill:#303030;fill-opacity:1;fill-rule:evenodd;stroke:none;stroke-width:1px;stroke-linecap:butt;stroke-linejoin:miter;stroke-opacity:1"
     d="m 128.86763,65.590195 -0.0325,5.493847 c 0.13581,2.187842 5.02814,4.58808 7.91313,4.592809 l 0,0.0014 c 0.007,4.4e-5 0.0153,-0.0014 0.0226,-0.0014 0.007,-2.1e-5 0.0144,0.0014 0.0212,0.0014 l 0,-0.0014 c 2.88498,-0.0047 7.77731,-2.404967 7.91313,-4.592809 l -0.0325,-5.493847 -7.88064,0 -7.92442,0 z"
     id="path4215"
     inkscape:connector-curvature="0" />
  <path
     inkscape:connector-curvature="0"
     style="fill:#303030;fill-opacity:1;fill-rule:evenodd;stroke:none;stroke-width:1px;stroke-linecap:butt;stroke-linejoin:miter;stroke-opacity:1"
     d="m 128.862,65.06994 -0.0325,-4.087053 c 0.13582,-1.627607 5.02815,-3.413226 7.91313,-3.41674 l 0,-7.23e-4 c 0.007,-3.6e-5 0.0153,7.23e-4 0.0226,7.23e-4 0.007,1.4e-5 0.0144,-7.23e-4 0.0212,-7.23e-4 l 0,7.23e-4 c 2.88498,0.0036 7.7773,1.789133 7.91312,3.41674 l -0.0325,4.087053 -7.88063,0 -7.92443,0 z"
     id="path4215-1" />
  <path
     style="fill:#303030;fill-opacity:1;fill-rule:evenodd;stroke:none;stroke-width:1px;stroke-linecap:butt;stroke-linejoin:miter;stroke-opacity:1"
     d="m 128.33901,65.020075 -4.94788,-0.476905 10.51176,-11.843127 15.45964,5.027369 0,7.570853 -0.63587,0 0,-6.756145 -3.37807,5.245947 0.0199,-3.000517 c -2.94826,-4.052388 -12.93055,-5.269912 -17.0692,-0.07948 z"
     id="path4252"
     inkscape:connector-curvature="0"
     sodipodi:nodetypes="ccccccccccc" />
  <ellipse
     style="opacity:1;fill:#303030;fill-opacity:1;stroke:none;stroke-linecap:round;stroke-linejoin:round;stroke-opacity:1"
     id="path4254"
     cx="149.05452"
     cy="65.894402"
     rx="0.60418975"
     ry="0.84305549" />
  <path
     style="fill:#ff7a30;fill-opacity:1;fill-rule:evenodd;stroke:none;stroke-width:1px;stroke-linecap:butt;stroke-linejoin:miter;stroke-opacity:1"
     d="m 136.57892,7.6567418 c -7.2e-4,0.001 -0.002,0.0018 -0.003,0.0028 -4.3e-4,-5.02e-4 -7.2e-4,-9.4e-4 -0.001,-0.0014 l 0,0.0028 c -5.5328,6.4173722 -12.19367,12.1736462 -11.85203,22.4400552 0.14895,5.155833 1.12782,9.987355 10.95946,11.578046 l 0.89398,-19.327343 0.89399,19.328755 c 9.83174,-1.590648 10.81061,-6.42217 10.95956,-11.578003 0.34165,-10.266409 -6.31781,-16.022683 -11.85062,-22.4400552 l 0,-0.0056 z"
     id="path4267"
     inkscape:connector-curvature="0" />
  <path
     style="fill:#2db030;fill-opacity:1;fill-rule:evenodd;stroke:none;stroke-width:1px;stroke-linecap:butt;stroke-linejoin:miter;stroke-opacity:1"
     d="m 212.05183,55.682872 c -0.001,-3.52e-4 -0.002,-0.0013 -0.004,-0.0019 3.3e-4,-5.71e-4 6.5e-4,-9.89e-4 9.9e-4,-0.0014 l -0.003,9.18e-4 c -7.87667,-3.122926 -15.49864,-7.52832 -25.08555,-3.839551 -4.822,1.831143 -9.06552,4.34 -7.34481,14.149721 l 18.55211,-5.492228 -17.96723,7.181829 c 4.72622,8.76676 9.61162,8.107427 14.53129,6.557718 9.81094,-3.043249 13.06561,-11.221891 17.31424,-18.552912 l 0.005,-0.0018 z"
     id="path4267-7"
     inkscape:connector-curvature="0" />
  <path
     style="fill:#ff00ff;fill-opacity:1;fill-rule:evenodd;stroke:none;stroke-width:1px;stroke-linecap:butt;stroke-linejoin:miter;stroke-opacity:1"
     d="m 177.31076,26.61777 c -8.2e-4,7.2e-5 -0.002,-3e-4 -0.003,-7.9e-5 5e-5,-5.35e-4 1.5e-4,-9.79e-4 2.7e-4,-0.0014 l -0.002,0.0017 c -6.90671,0.305082 -14.05202,-0.429643 -19.95753,5.517609 -2.97843,2.973298 -5.29991,6.257983 -0.74343,12.98651 l 11.97704,-10.283367 -10.9781,11.345925 c 6.44576,4.948532 9.86266,2.826444 13.00777,0.03005 6.28783,-5.541483 5.98001,-12.716992 6.69518,-19.593353 l 0.003,-0.003 z"
     id="path4267-7-5"
     inkscape:connector-curvature="0" />
  <path
     style="fill:#5cc7ff;fill-opacity:1;fill-rule:evenodd;stroke:none;stroke-width:1px;stroke-linecap:butt;stroke-linejoin:miter;stroke-opacity:1"
     d="m 162.53208,12.174138 c -4.8e-4,1.41e-4 -0.001,6.2e-5 -0.002,3.12e-4 -3e-5,-3.22e-4 -2e-5,-5.97e-4 0,-8.63e-4 l -0.001,0.0012 c -4.05192,1.006037 -8.36935,1.425085 -11.15429,5.651309 -1.40772,2.115987 -2.38934,4.337783 1.11199,7.776127 l 5.86073,-7.51859 -5.14243,8.028177 c 4.40695,2.158893 6.17594,0.494371 7.70346,-1.536819 3.05975,-4.031726 2.01997,-8.242431 1.62149,-12.398318 l 10e-4,-0.0021 z"
     id="path4267-7-5-7"
     inkscape:connector-curvature="0" />
  <path
     style="fill:#6085ff;fill-opacity:1;fill-rule:evenodd;stroke:none;stroke-width:1px;stroke-linecap:butt;stroke-linejoin:miter;stroke-opacity:1"
     d="m 192.40933,35.712295 c -5e-4,-1.9e-5 -9.6e-4,-2.59e-4 -0.002,-3.39e-4 8e-5,-3.15e-4 1.7e-4,-5.72e-4 2.7e-4,-8.18e-4 l -0.001,8.37e-4 c -4.16168,-0.332706 -8.38871,-1.306325 -12.37154,1.816816 -2.00677,1.559455 -3.64311,3.354548 -1.41483,7.726766 l 7.94489,-5.268401 -7.42558,5.979706 c 3.49331,3.446563 5.6993,2.429928 7.79275,0.988922 4.18165,-2.851444 4.53278,-7.174393 5.47461,-11.24172 l 0.002,-0.0017 z"
     id="path4267-7-5-7-7"
     inkscape:connector-curvature="0" />
  <path
     style="fill:#2db0ff;fill-opacity:1;fill-rule:evenodd;stroke:none;stroke-width:1px;stroke-linecap:butt;stroke-linejoin:miter;stroke-opacity:1"
     d="m 59.40644,55.497569 c 10e-4,-3.52e-4 0.002,-0.0013 0.004,-0.0019 -3.3e-4,-5.71e-4 -6.5e-4,-9.89e-4 -9.9e-4,-0.0014 l 0.003,9.18e-4 c 7.87667,-3.122926 15.49864,-7.52832 25.08555,-3.839551 4.822,1.831143 9.06552,4.34 7.34481,14.149721 L 73.2907,60.313129 91.25793,67.494958 c -4.72622,8.76676 -9.61162,8.107427 -14.53129,6.557718 C 66.9157,71.009427 63.66103,62.830785 59.4124,55.499764 l -0.005,-0.0018 z"
     id="path4267-7-7"
     inkscape:connector-curvature="0" />
  <path
     style="fill:#ff005e;fill-opacity:1;fill-rule:evenodd;stroke:none;stroke-width:1px;stroke-linecap:butt;stroke-linejoin:miter;stroke-opacity:1"
     d="m 94.14751,26.432467 c 8.2e-4,7.2e-5 0.002,-3e-4 0.003,-7.9e-5 -5e-5,-5.35e-4 -1.5e-4,-9.79e-4 -2.7e-4,-0.0014 l 0.002,0.0017 c 6.90671,0.305082 14.05202,-0.429643 19.95753,5.517609 2.97843,2.973298 5.29991,6.257983 0.74343,12.98651 l -11.97704,-10.283367 10.9781,11.345925 c -6.44576,4.948532 -9.86266,2.826444 -13.00777,0.03005 -6.28783,-5.541483 -5.98001,-12.716992 -6.69518,-19.593353 l -0.003,-0.003 z"
     id="path4267-7-5-8"
     inkscape:connector-curvature="0" />
  <path
     style="fill:#5ceb00;fill-opacity:1;fill-rule:evenodd;stroke:none;stroke-width:1px;stroke-linecap:butt;stroke-linejoin:miter;stroke-opacity:1"
     d="m 108.92619,11.988835 c 4.8e-4,1.41e-4 10e-4,6.2e-5 0.002,3.12e-4 3e-5,-3.22e-4 2e-5,-5.97e-4 0,-8.63e-4 l 0.001,0.0012 c 4.05192,1.006037 8.36935,1.425085 11.15429,5.651309 1.40772,2.115987 2.38934,4.337783 -1.11199,7.776127 l -5.86073,-7.51859 5.14243,8.028177 c -4.40695,2.158893 -6.17594,0.494371 -7.70346,-1.536819 -3.05975,-4.031726 -2.01997,-8.242431 -1.62149,-12.398318 l -0.001,-0.0021 z"
     id="path4267-7-5-7-5"
     inkscape:connector-curvature="0" />
  <path
     style="fill:#ffbf00;fill-opacity:1;fill-rule:evenodd;stroke:none;stroke-width:1px;stroke-linecap:butt;stroke-linejoin:miter;stroke-opacity:1"
     d="m 79.04894,35.526992 c 5e-4,-1.9e-5 9.6e-4,-2.59e-4 0.002,-3.39e-4 -8e-5,-3.15e-4 -1.7e-4,-5.72e-4 -2.7e-4,-8.18e-4 l 0.001,8.37e-4 c 4.16168,-0.332706 8.38871,-1.306325 12.37154,1.816816 2.00677,1.559455 3.64311,3.354548 1.41483,7.726766 l -7.94489,-5.268401 7.42558,5.979706 c -3.49331,3.446563 -5.6993,2.429928 -7.79275,0.988922 -4.18165,-2.851444 -4.53278,-7.174393 -5.47461,-11.24172 l -0.002,-0.0017 z"
     id="path4267-7-5-7-7-5"
     inkscape:connector-curvature="0" />
</svg>
