<?xml version="1.0" encoding="utf-8"?>
<!-- Generator: Adobe Illustrator 16.0.0, SVG Export Plug-In . SVG Version: 6.00 Build 0)  -->
<!DOCTYPE svg PUBLIC "-//W3C//DTD SVG 1.1//EN" "http://www.w3.org/Graphics/SVG/1.1/DTD/svg11.dtd">
<svg version="1.1" id="Warstwa_1" xmlns="http://www.w3.org/2000/svg" xmlns:xlink="http://www.w3.org/1999/xlink" x="0px" y="0px"
	 width="512px" height="512px" viewBox="0 0 512 512" enable-background="new 0 0 512 512" xml:space="preserve">
<path fill="#010202" d="M52.295,367.842c0,0,28.183,75.295,95.691,63.88c0,0,8.74,66.068,89.754,75.256
	C237.74,506.978,258.373,307.462,52.295,367.842z"/>
<path fill="#010202" d="M430.129,255.228c4.168-6.288,7.866-12.595,11.124-18.896l-187.42-124.494
	c-5.233,5.439-10.336,11.347-15.274,17.749L430.129,255.228z"/>
<path fill="#010202" d="M388.278,300.102c5.602-5.161,10.786-10.385,15.573-15.654L214.443,160.226
	c-3.472,6.092-6.803,12.534-9.987,19.318L388.278,300.102z"/>
<path fill="#010202" d="M341.153,337.253c7.032-4.318,13.679-8.724,19.93-13.203l-169.36-111.074
	c-2.403,6.972-4.66,14.252-6.765,21.837L341.153,337.253z"/>
<path fill="#010202" d="M278.995,371.177c8.478-3.577,16.588-7.253,24.295-11.028l-131.12-85.995
	c-1.498,7.818-2.838,15.934-4.031,24.319L278.995,371.177z"/>
<rect x="277.098" y="84.41" transform="matrix(0.7929 0.6094 -0.6094 0.7929 214.7312 -123.3057)" fill="#010202" width="23.332" height="339.668"/>
<path fill="#010202" d="M459.512,38.315l-2.248-2.49c0,0-108.448-24.69-188.32,56.813c30.878-10.783,79.062,1.321,121.925,33.554
	c35.908,27.003,59.28,61.516,64.875,91.206C502.068,127.021,459.512,38.315,459.512,38.315z M394.693,111.837
	c-14.488,0-26.595-10.175-29.58-23.768c-0.789-1.841-1.228-3.867-1.22-5.998c0.007-1.684,0.3-3.296,0.814-4.807
	c2.08-14.702,14.709-26.012,29.985-26.012c16.729,0,30.292,13.562,30.292,30.292C424.985,98.276,411.423,111.837,394.693,111.837z"
	/>
</svg>
